<svg width="189" height="142" viewBox="0 0 189 142" fill="none" xmlns="http://www.w3.org/2000/svg">
<path d="M106.54 80.5368H111.58V60.5568H107.89V75.7368L100.3 60.5568H95.2595V80.5368H98.9495V65.3868L106.54 80.5368Z" fill="url(#paint0_linear_205_2087)"/>
<path d="M119.87 80.5368V72.5268H127.79V69.1968H119.87V63.8868H128.45V60.5568H116.09V80.5368H119.87Z" fill="url(#paint1_linear_205_2087)"/>
<path d="M135.843 80.5368H139.623V63.8868H145.203V60.5568H130.263V63.8868H135.843V80.5368Z" fill="url(#paint2_linear_205_2087)"/>
<path d="M160.502 75.1068C160.502 71.1168 160.232 70.2468 154.862 68.9568C151.412 68.1168 151.352 68.0568 151.352 65.7768C151.352 64.0368 151.802 63.4968 154.352 63.4968C156.092 63.4968 158.042 63.7368 159.692 64.0968L160.112 60.9168C158.132 60.4668 156.032 60.2568 154.292 60.2568C149.222 60.2568 147.572 62.0568 147.572 65.6868C147.572 69.9168 148.232 70.8468 153.062 71.9268C156.662 72.7068 156.722 72.8868 156.722 75.1068C156.722 77.0268 156.272 77.5968 153.542 77.5968C151.562 77.5968 149.762 77.2368 147.902 76.6668L147.242 79.6368C148.562 80.2668 151.202 80.8368 153.482 80.8368C159.392 80.8368 160.502 78.8868 160.502 75.1068Z" fill="url(#paint3_linear_205_2087)"/>
<g filter="url(#filter0_dd_205_2087)">
<path d="M106.54 80.5368H111.58V60.5568H107.89V75.7368L100.3 60.5568H95.2595V80.5368H98.9495V65.3868L106.54 80.5368Z" fill="url(#paint4_linear_205_2087)"/>
<path d="M119.87 80.5368V72.5268H127.79V69.1968H119.87V63.8868H128.45V60.5568H116.09V80.5368H119.87Z" fill="url(#paint5_linear_205_2087)"/>
<path d="M135.843 80.5368H139.623V63.8868H145.203V60.5568H130.263V63.8868H135.843V80.5368Z" fill="url(#paint6_linear_205_2087)"/>
<path d="M160.502 75.1068C160.502 71.1168 160.232 70.2468 154.862 68.9568C151.412 68.1168 151.352 68.0568 151.352 65.7768C151.352 64.0368 151.802 63.4968 154.352 63.4968C156.092 63.4968 158.042 63.7368 159.692 64.0968L160.112 60.9168C158.132 60.4668 156.032 60.2568 154.292 60.2568C149.222 60.2568 147.572 62.0568 147.572 65.6868C147.572 69.9168 148.232 70.8468 153.062 71.9268C156.662 72.7068 156.722 72.8868 156.722 75.1068C156.722 77.0268 156.272 77.5968 153.542 77.5968C151.562 77.5968 149.762 77.2368 147.902 76.6668L147.242 79.6368C148.562 80.2668 151.202 80.8368 153.482 80.8368C159.392 80.8368 160.502 78.8868 160.502 75.1068Z" fill="url(#paint7_linear_205_2087)"/>
</g>
<g filter="url(#filter1_ddd_205_2087)">
<path d="M80.704 80.4297C83.5887 82.8259 83.5545 87.3319 80.0259 88.6017C79.4761 88.7996 78.9171 88.9744 78.3503 89.1253C75.4511 89.8974 72.4183 90.0276 69.4635 89.5067C66.5088 88.9858 63.7033 87.8264 61.2428 86.1095C58.7824 84.3925 56.7263 82.1593 55.2179 79.5657C53.7095 76.9721 52.7853 74.0807 52.5097 71.093C52.2341 68.1054 52.6138 65.0937 53.6222 62.2679C54.6307 59.4422 56.2436 56.8705 58.3484 54.7324C58.7509 54.3235 59.1696 53.9324 59.6031 53.5598C62.4569 51.1073 66.4008 53.3228 67.0399 57.0309L67.6363 60.4909L68.5235 65.6387C69.1303 69.1589 70.9733 72.3471 73.7212 74.6295L80.704 80.4297Z" fill="white"/>
</g>
<defs>
<filter id="filter0_dd_205_2087" x="66.7614" y="31.7586" width="122.239" height="77.5763" filterUnits="userSpaceOnUse" color-interpolation-filters="sRGB">
<feFlood flood-opacity="0" result="BackgroundImageFix"/>
<feColorMatrix in="SourceAlpha" type="matrix" values="0 0 0 0 0 0 0 0 0 0 0 0 0 0 0 0 0 0 127 0" result="hardAlpha"/>
<feOffset/>
<feGaussianBlur stdDeviation="4.07116"/>
<feColorMatrix type="matrix" values="0 0 0 0 1 0 0 0 0 1 0 0 0 0 1 0 0 0 0.43 0"/>
<feBlend mode="normal" in2="BackgroundImageFix" result="effect1_dropShadow_205_2087"/>
<feColorMatrix in="SourceAlpha" type="matrix" values="0 0 0 0 0 0 0 0 0 0 0 0 0 0 0 0 0 0 127 0" result="hardAlpha"/>
<feOffset/>
<feGaussianBlur stdDeviation="14.2491"/>
<feColorMatrix type="matrix" values="0 0 0 0 1 0 0 0 0 1 0 0 0 0 1 0 0 0 0.62 0"/>
<feBlend mode="normal" in2="effect1_dropShadow_205_2087" result="effect2_dropShadow_205_2087"/>
<feBlend mode="normal" in="SourceGraphic" in2="effect2_dropShadow_205_2087" result="shape"/>
</filter>
<filter id="filter1_ddd_205_2087" x="0.342606" y="0.446381" width="134.515" height="141.453" filterUnits="userSpaceOnUse" color-interpolation-filters="sRGB">
<feFlood flood-opacity="0" result="BackgroundImageFix"/>
<feColorMatrix in="SourceAlpha" type="matrix" values="0 0 0 0 0 0 0 0 0 0 0 0 0 0 0 0 0 0 127 0" result="hardAlpha"/>
<feOffset/>
<feGaussianBlur stdDeviation="3.72"/>
<feColorMatrix type="matrix" values="0 0 0 0 1 0 0 0 0 1 0 0 0 0 1 0 0 0 1 0"/>
<feBlend mode="normal" in2="BackgroundImageFix" result="effect1_dropShadow_205_2087"/>
<feColorMatrix in="SourceAlpha" type="matrix" values="0 0 0 0 0 0 0 0 0 0 0 0 0 0 0 0 0 0 127 0" result="hardAlpha"/>
<feOffset/>
<feGaussianBlur stdDeviation="7.44"/>
<feColorMatrix type="matrix" values="0 0 0 0 1 0 0 0 0 1 0 0 0 0 1 0 0 0 1 0"/>
<feBlend mode="normal" in2="effect1_dropShadow_205_2087" result="effect2_dropShadow_205_2087"/>
<feColorMatrix in="SourceAlpha" type="matrix" values="0 0 0 0 0 0 0 0 0 0 0 0 0 0 0 0 0 0 127 0" result="hardAlpha"/>
<feOffset/>
<feGaussianBlur stdDeviation="26.04"/>
<feColorMatrix type="matrix" values="0 0 0 0 1 0 0 0 0 1 0 0 0 0 1 0 0 0 1 0"/>
<feBlend mode="normal" in2="effect2_dropShadow_205_2087" result="effect3_dropShadow_205_2087"/>
<feBlend mode="normal" in="SourceGraphic" in2="effect3_dropShadow_205_2087" result="shape"/>
</filter>
<linearGradient id="paint0_linear_205_2087" x1="117.51" y1="70.5368" x2="266.01" y2="70.5368" gradientUnits="userSpaceOnUse">
<stop offset="0.0748471" stop-color="white"/>
<stop offset="0.442792" stop-color="white" stop-opacity="0"/>
</linearGradient>
<linearGradient id="paint1_linear_205_2087" x1="117.51" y1="70.5368" x2="266.01" y2="70.5368" gradientUnits="userSpaceOnUse">
<stop offset="0.0748471" stop-color="white"/>
<stop offset="0.442792" stop-color="white" stop-opacity="0"/>
</linearGradient>
<linearGradient id="paint2_linear_205_2087" x1="117.51" y1="70.5368" x2="266.01" y2="70.5368" gradientUnits="userSpaceOnUse">
<stop offset="0.0748471" stop-color="white"/>
<stop offset="0.442792" stop-color="white" stop-opacity="0"/>
</linearGradient>
<linearGradient id="paint3_linear_205_2087" x1="117.51" y1="70.5368" x2="266.01" y2="70.5368" gradientUnits="userSpaceOnUse">
<stop offset="0.0748471" stop-color="white"/>
<stop offset="0.442792" stop-color="white" stop-opacity="0"/>
</linearGradient>
<linearGradient id="paint4_linear_205_2087" x1="121.01" y1="70.5368" x2="164.01" y2="70.5368" gradientUnits="userSpaceOnUse">
<stop stop-color="white"/>
<stop offset="1" stop-color="white" stop-opacity="0"/>
</linearGradient>
<linearGradient id="paint5_linear_205_2087" x1="121.01" y1="70.5368" x2="164.01" y2="70.5368" gradientUnits="userSpaceOnUse">
<stop stop-color="white"/>
<stop offset="1" stop-color="white" stop-opacity="0"/>
</linearGradient>
<linearGradient id="paint6_linear_205_2087" x1="121.01" y1="70.5368" x2="164.01" y2="70.5368" gradientUnits="userSpaceOnUse">
<stop stop-color="white"/>
<stop offset="1" stop-color="white" stop-opacity="0"/>
</linearGradient>
<linearGradient id="paint7_linear_205_2087" x1="121.01" y1="70.5368" x2="164.01" y2="70.5368" gradientUnits="userSpaceOnUse">
<stop stop-color="white"/>
<stop offset="1" stop-color="white" stop-opacity="0"/>
</linearGradient>
</defs>
</svg>
